<svg width="14" height="14" viewBox="0 0 14 14" fill="none" xmlns="http://www.w3.org/2000/svg">
<path d="M13.9994 7.04314C13.9994 3.15298 10.8656 0 6.99971 0C3.1338 0 0 3.15298 0 7.04314C0 10.5577 2.55977 13.4712 5.90591 13.9994V9.07861H4.12901V7.04255H5.90591V5.4913C5.90591 3.72582 6.95129 2.75093 8.54969 2.75093C9.31564 2.75093 10.1166 2.88827 10.1166 2.88827V4.62147H9.23455C8.36535 4.62147 8.09409 5.16438 8.09409 5.72138V7.04314H10.0355L9.72515 9.07919H8.09409V14C11.4402 13.4718 14 10.5583 14 7.04314H13.9994Z" fill="#BDA55D"/>
</svg>
