<svg width="14" height="14" viewBox="0 0 14 14" fill="none" xmlns="http://www.w3.org/2000/svg">
<path d="M7.71982 0C8.5073 0.00209995 8.907 0.00629985 9.25209 0.0160996L9.38789 0.0209995C9.54468 0.0265994 9.69938 0.0335992 9.88627 0.041999C10.6311 0.0769982 11.1392 0.194596 11.5851 0.367491C12.0471 0.545287 12.4363 0.786082 12.8255 1.17457C13.1814 1.52449 13.4569 1.94777 13.6326 2.41494C13.8055 2.86083 13.9231 3.36902 13.9581 4.1145C13.9665 4.3007 13.9735 4.4554 13.9791 4.61289L13.9833 4.74869C13.9938 5.09308 13.998 5.49277 13.9994 6.28025L14.0001 6.80244V7.71942C14.0018 8.22999 13.9964 8.74056 13.984 9.25098L13.9798 9.38678C13.9742 9.54428 13.9672 9.69897 13.9588 9.88517C13.9238 10.6307 13.8048 11.1381 13.6326 11.5847C13.4574 12.0522 13.1819 12.4755 12.8255 12.8251C12.4755 13.1809 12.0522 13.4563 11.5851 13.6322C11.1392 13.8051 10.6311 13.9227 9.88627 13.9577C9.72018 13.9655 9.55405 13.9725 9.38789 13.9787L9.25209 13.9829C8.907 13.9927 8.5073 13.9976 7.71982 13.999L7.19764 13.9997H6.28136C5.77055 14.0014 5.25975 13.9961 4.74909 13.9836L4.6133 13.9794C4.44713 13.9731 4.28099 13.9658 4.11491 13.9577C3.37013 13.9227 2.86194 13.8051 2.41535 13.6322C1.94823 13.4567 1.52512 13.1813 1.17568 12.8251C0.819416 12.4753 0.543748 12.052 0.367895 11.5847C0.194999 11.1388 0.0774021 10.6307 0.0424029 9.88517C0.0346042 9.71907 0.0276043 9.55294 0.0214034 9.38678L0.0179035 9.25098C0.00500428 8.74057 -0.000829539 8.23 0.000403891 7.71942V6.28025C-0.00154974 5.76969 0.00358402 5.25911 0.0158036 4.74869L0.0207034 4.61289C0.0263033 4.4554 0.0333031 4.3007 0.0417029 4.1145C0.0767021 3.36902 0.194299 2.86153 0.367195 2.41494C0.542971 1.94729 0.819189 1.52388 1.17638 1.17457C1.52573 0.818613 1.94856 0.543178 2.41535 0.367491C2.86194 0.194596 3.36943 0.0769982 4.11491 0.041999C4.3011 0.0335992 4.4565 0.0265994 4.6133 0.0209995L4.74909 0.0167996C5.25952 0.00436279 5.77009 -0.00100426 6.28066 0.000699933L7.71982 0ZM7.00024 3.49992C6.072 3.49992 5.18179 3.86866 4.52542 4.52502C3.86906 5.18138 3.50032 6.0716 3.50032 6.99984C3.50032 7.92807 3.86906 8.81829 4.52542 9.47465C5.18179 10.131 6.072 10.4998 7.00024 10.4998C7.92848 10.4998 8.81869 10.131 9.47506 9.47465C10.1314 8.81829 10.5002 7.92807 10.5002 6.99984C10.5002 6.0716 10.1314 5.18138 9.47506 4.52502C8.81869 3.86866 7.92848 3.49992 7.00024 3.49992ZM7.00024 4.89989C7.27601 4.89984 7.54909 4.95411 7.80388 5.0596C8.05868 5.16509 8.2902 5.31973 8.48523 5.5147C8.68026 5.70967 8.83498 5.94114 8.94056 6.1959C9.04613 6.45066 9.1005 6.72372 9.10054 6.99949C9.10059 7.27526 9.04632 7.54833 8.94083 7.80313C8.83534 8.05793 8.68069 8.28945 8.48573 8.48448C8.29076 8.67951 8.05929 8.83423 7.80453 8.9398C7.54977 9.04538 7.27671 9.09974 7.00094 9.09979C6.444 9.09979 5.90987 8.87854 5.51605 8.48473C5.12223 8.09091 4.90099 7.55678 4.90099 6.99984C4.90099 6.44289 5.12223 5.90876 5.51605 5.51495C5.90987 5.12113 6.4433 4.89989 7.00024 4.89989ZM10.6759 2.44994C10.4438 2.44994 10.2212 2.54213 10.0572 2.70622C9.89306 2.87031 9.80087 3.09286 9.80087 3.32492C9.80087 3.55698 9.89306 3.77954 10.0572 3.94363C10.2212 4.10772 10.4438 4.1999 10.6759 4.1999C10.9079 4.1999 11.1305 4.10772 11.2946 3.94363C11.4586 3.77954 11.5508 3.55698 11.5508 3.32492C11.5508 3.09286 11.4586 2.87031 11.2946 2.70622C11.1305 2.54213 10.9079 2.44994 10.6759 2.44994Z" fill="#BDA55D"/>
</svg>
