<svg width="14" height="14" viewBox="0 0 14 14" fill="none" xmlns="http://www.w3.org/2000/svg">
<path fill-rule="evenodd" clip-rule="evenodd" d="M5.2003 4.8783H7.8001V6.1733C8.1746 5.4285 9.135 4.7593 10.5777 4.7593C13.3434 4.7593 14 6.2419 14 8.9621V14H11.2V9.5816C11.2 8.0325 10.8255 7.1589 9.8721 7.1589C8.5498 7.1589 8.0003 8.1004 8.0003 9.5809V14H5.2003V4.8783ZM0.399 13.881H3.199V4.7593H0.399V13.881ZM3.6001 1.785C3.6002 2.01969 3.55366 2.25206 3.46317 2.46861C3.37268 2.68516 3.24006 2.88156 3.073 3.0464C2.73448 3.38284 2.27627 3.57116 1.799 3.57C1.32257 3.56968 0.865418 3.38184 0.5264 3.0471C0.359948 2.8817 0.22777 2.68508 0.137441 2.4685C0.047111 2.25193 0.000405392 2.01966 0 1.785C0 1.3111 0.189 0.8575 0.5271 0.5229C0.86582 0.187711 1.32317 -0.000209448 1.7997 1.75185e-07C2.2771 1.75185e-07 2.7349 0.1883 3.073 0.5229C3.4104 0.8575 3.6001 1.3111 3.6001 1.785Z" fill="#BDA55D"/>
</svg>
