<?xml version="1.0" encoding="UTF-8"?>
<svg id="Layer_2" data-name="Layer 2" xmlns="http://www.w3.org/2000/svg" viewBox="0 0 188.93 56.33">
  <defs>
    <style>
      .cls-1 {
        fill: #c7c7c7;
      }

      .cls-1, .cls-2 {
        stroke-width: 0px;
      }

      .cls-2 {
        fill: #bda55d;
      }
    </style>
  </defs>
  <g id="Layer_1-2" data-name="Layer 1">
    <g>
      <g>
        <path class="cls-1" d="M133.07,55.87l-5.98-8.8-6.01,8.8h-1.01v.46h2.51v-.46h-.76l1.06-1.73h6.78l1.06,1.73h-.71v.46h4.07v-.46h-1ZM123.27,53.58l3-4.43,2.99,4.43h-5.99Z"/>
        <polygon class="cls-1" points="24.59 47.53 24.59 47.07 22.08 47.07 22.08 47.53 22.97 47.53 19.78 53.88 16.38 47.07 12.65 53.69 9.61 47.53 10.47 47.53 10.47 47.07 6.4 47.07 6.4 47.53 7.38 47.53 11.82 56.33 15.54 49.73 19.04 56.33 23.62 47.53 24.59 47.53"/>
        <path class="cls-1" d="M47.35,56.05c-1,.19-1.82.28-2.45.28s-1.06-.06-1.33-.18c-.4-.19-.6-.55-.6-1.09v-4.07h-1.18l2.73-1.92v.98h2.83v.46h-2.83v3.81c0,.6.15.99.46,1.17.22.14.65.21,1.31.21.09,0,.45-.04,1.06-.1v.46Z"/>
        <path class="cls-1" d="M163.17,56.05c-1,.19-1.82.28-2.45.28s-1.06-.06-1.33-.18c-.4-.19-.6-.55-.6-1.09v-4.07h-1.18l2.73-1.92v.98h2.83v.46h-2.83v3.81c0,.6.15.99.46,1.17.22.14.65.21,1.31.21.09,0,.45-.04,1.06-.1v.46Z"/>
        <path class="cls-1" d="M35.76,56.33h-4.07v-.46h1.19s0-3.58,0-3.58c0-.54-.19-1.03-.59-1.22-.27-.14-.71-.21-1.3-.21s-1.27.14-2.08.42v4.58h1.22v.46h-4.1v-.46h1.33v-7.96h-1.42s2.91-.85,2.98-.83v3.73c1.35-.5,2.36-.76,3.03-.76,1.68,0,2.51.76,2.51,2.03v3.8h1.3s0,.46,0,.46Z"/>
        <path class="cls-1" d="M40.95,56.33h-4.19v-.46h1.31v-4.99h-1.31l2.87-.83v5.82h1.32v.46Z"/>
        <path class="cls-1" d="M55.93,55.57c-1.17.5-2.35.76-3.53.76-5.65,0-5.57-6.28.15-6.28,3.84,0,3.35,2.86,3.35,2.86h-6.05s0,.14,0,.14c0,2.3,2.64,3.39,6.08,1.83v.69ZM54.25,52.38v-.2c0-1.11-.64-1.67-1.94-1.67-.58,0-1.09.16-1.53.47-.49.35-.77.81-.85,1.4h4.31Z"/>
        <path class="cls-1" d="M78.24,56.33h-4.36v-.46h1.42v-7.95h-1.45s3-.83,3-.83v8.78h1.39v.46Z"/>
        <path class="cls-1" d="M98.8,56.33h-2.51l-.26-.83c-1.13.55-2.14.83-3.03.83-.72,0-1.3-.14-1.73-.41-.51-.33-.77-.83-.77-1.51v-3.51h-1.32s2.82-.86,2.89-.85v4.14c0,.88.6,1.33,1.81,1.33.74,0,1.46-.13,2.15-.38v-4.24h-1.33s2.82-.86,2.89-.85v5.82h1.22v.46Z"/>
        <path class="cls-1" d="M109.22,56.33h-2.77v-.77c-1,.51-1.96.77-2.87.77s-1.76-.26-2.45-.76c-.76-.55-1.14-1.28-1.14-2.19,0-1.06.5-1.91,1.5-2.54.86-.55,1.85-.8,2.98-.8.74,0,1.41.05,1.99.15v-2.3h-1.42s2.91-.85,2.98-.83v8.8h1.22v.46ZM106.45,50.79c-.73-.14-1.28-.21-1.64-.21-.87,0-1.6.21-2.19.62-.67.47-1,1.14-1,1.97,0,.77.28,1.36.85,1.78.51.38,1.17.58,1.96.58.65,0,1.33-.14,2.03-.44v-4.31Z"/>
        <path class="cls-1" d="M115.25,55.98c-.6.23-1.33.35-2.18.35-1.04,0-1.85-.09-2.42-.27v-1.63h.66v1.06c.52.19.91.37,2.04.37.42,0,.78-.14,1.1-.27.42-.18.63-.45.63-.81,0-.26-.1-.46-.32-.63s-.69-.37-1.44-.6c-.83-.24-1.41-.46-1.72-.63-.55-.31-.83-.68-.83-1.13,0-.68.41-1.17,1.23-1.46.56-.19,1.26-.29,2.08-.29.88,0,1.62.09,2.19.27v1.62h-.67v-1.09c-.4-.18-1.19-.35-1.7-.35-1.04,0-1.63.37-1.63.97,0,.4.37.73,1.1.99.68.23,1.37.46,2.06.68.73.32,1.1.76,1.1,1.3,0,.71-.44,1.22-1.3,1.54Z"/>
        <path class="cls-1" d="M142.7,50.51h-1.09l-3.27,5.82h-1.06l-2.98-5.82h-1.17v-.46h4.07v.46h-1.48s2.44,4.55,2.44,4.55l2.66-4.56h-1.43s0-.46,0-.46h3.31v.46Z"/>
        <path class="cls-1" d="M156.78,56.33h-2.62l-.26-.82c-3.83,1.71-5.92.37-5.72-.8.29-1.69,2.94-1.86,5.72-2.28v-.5c0-1.2-.97-1.45-1.84-1.43-.72.02-1.29.63-1.29,1.35h0s-.57,0-1,0c-.37,0-1.53-1.81,2.9-1.81.83,0,1.46.1,1.89.29.6.28.91.78.91,1.51v4.01h1.31v.46ZM153.91,52.87c-6.53.32-5.15,4.76,0,2.22v-2.22Z"/>
        <path class="cls-1" d="M86.54,55.61c-.81.47-1.77.72-2.89.72s-2.06-.24-2.87-.73c-.97-.58-1.46-1.39-1.46-2.41s.49-1.86,1.45-2.44c.8-.47,1.76-.71,2.89-.71s2.09.23,2.9.71c.96.58,1.45,1.39,1.45,2.44s-.49,1.85-1.46,2.42ZM83.65,50.51c-1.58,0-2.58,1.06-2.58,2.69,0,.81.23,1.46.71,1.95s1.09.73,1.87.73,1.4-.24,1.87-.73.72-1.14.72-1.95c0-1.64-1-2.69-2.59-2.69Z"/>
        <path class="cls-1" d="M176.5,55.61c-.81.47-1.77.72-2.89.72s-2.06-.24-2.87-.73c-.97-.58-1.46-1.39-1.46-2.41s.49-1.86,1.45-2.44c.8-.47,1.76-.71,2.89-.71s2.09.23,2.9.71c.96.58,1.45,1.39,1.45,2.44s-.49,1.85-1.46,2.42ZM173.62,50.51c-1.58,0-2.58,1.06-2.58,2.69,0,.81.23,1.46.71,1.95s1.09.73,1.87.73,1.4-.24,1.87-.73.72-1.14.72-1.95c0-1.64-1-2.69-2.59-2.69Z"/>
        <path class="cls-1" d="M188.93,56.33h-4.08v-.46h1.22v-3.69c0-.54-.19-.91-.59-1.1-.27-.14-.71-.21-1.3-.21-.67,0-1.36.14-2.08.42v4.58h1.21v.46h-4.09v-.46h1.31v-4.99h-1.31s2.82-.85,2.89-.83v.76c1.32-.5,2.32-.76,3-.76,1.68,0,2.51.64,2.51,1.91v3.91h1.31v.46Z"/>
        <path class="cls-1" d="M147.3,56.33h-4.19v-.46h1.31v-4.99h-1.31l2.87-.83v5.82h1.32v.46Z"/>
        <path class="cls-1" d="M168.22,56.33h-4.19v-.46h1.31v-4.99h-1.31l2.87-.83v5.82h1.32v.46Z"/>
        <path class="cls-1" d="M61.47,51.7c0,4.29,9.66,5.87,9.73,1.13h.48v3.51h-.48v-.81c-15.71,4.64-15.63-12.25,0-7.64v-.81h.48v3.5h-.48c-.07-4.74-9.72-3.16-9.73,1.13Z"/>
        <path class="cls-1" d="M145.9,48.81c-.42.22-.99.23-1.4,0-.51-.26-.51-.84,0-1.1.43-.24.97-.24,1.4-.01.51.27.52.85,0,1.12Z"/>
        <path class="cls-1" d="M166.88,48.8c-.42.22-.99.23-1.4,0-.51-.26-.51-.84,0-1.1.43-.24.97-.24,1.4-.01.51.27.52.85,0,1.12Z"/>
        <path class="cls-1" d="M39.55,48.81c-.42.22-.99.23-1.4,0-.51-.26-.51-.84,0-1.1.43-.24.97-.24,1.4-.01.51.27.52.85,0,1.12Z"/>
      </g>
      <g>
        <path class="cls-1" d="M186.16,32.28l-16.56-24.36-16.65,24.36h-2.79v1.28h6.96v-1.28h-2.1l2.93-4.78h18.76l2.94,4.78h-1.97v1.28h11.25v-1.28h-2.77ZM159.04,25.93l8.32-12.27,8.27,12.27h-16.59Z"/>
        <polygon class="cls-1" points="112.2 9.2 112.2 7.92 105.25 7.92 105.25 9.2 107.7 9.2 98.89 26.77 89.45 7.92 79.13 26.26 70.72 9.2 73.11 9.2 73.11 7.92 61.85 7.92 61.85 9.2 64.56 9.2 76.85 33.55 87.13 15.3 96.83 33.55 109.51 9.2 112.2 9.2"/>
        <path class="cls-1" d="M117.84,20.73c-.02,11.88,26.75,16.26,26.94,3.12h1.33v9.7h-1.33v-2.25c-43.5,12.83-43.25-33.91,0-21.15v-2.23h1.33v9.68h-1.33c-.2-13.11-26.92-8.74-26.94,3.12Z"/>
        <g>
          <polygon id="Layer_1_0_" data-name="Layer 1[0]" class="cls-2" points="36.22 0 24.76 11.46 0 0 36.22 0"/>
          <polygon id="Layer_1_1_" data-name="Layer 1[1]" class="cls-1" points=".95 41.47 42.42 0 56.26 0 .95 41.47"/>
        </g>
      </g>
    </g>
  </g>
</svg>